Simulation
nRows=27
nColumns=15
endheader
time  TH_x TH_y TH_z SC_y  SC_z  SC_x  AC_y  AC_z  AC_x  GH_y  GH_z  GH_yy  EL_x  PS_y
1.549999999999999  0.000000  0.000000  0.000000  -56.88910907556813  11.20687415650513  47.255510007265315  54.63565567841479  -4.352290395376236  -2.9018977369788215  34.90118584046219  49.434371161607395  -43.01756904213331  18.31229278753193  120.000000
1.5809999999999989  0.000000  0.000000  0.000000  -56.06805356911775  11.196624758743063  48.246188527317145  53.96834184979358  -6.0406867399759125  -4.811619434860127  35.543173189830995  48.736436665148894  -43.51840878367996  18.46881255268827  120.000000
1.611999999999999  0.000000  0.000000  0.000000  -55.19681606718957  11.154376646203705  48.999317904688525  53.25904036647507  -7.600740086484283  -6.695913466795106  36.24160813675037  47.878846638954144  -44.02516539020185  18.65887518453114  120.000000
1.642999999999999  0.000000  0.000000  0.000000  -54.306255812965524  11.067222926417106  49.51478458931841  52.547539215984386  -9.026147031480383  -8.508650591438341  36.9631880477101  46.860398462908215  -44.51155522944211  18.874308334311117  120.000000
1.6739999999999988  0.000000  0.000000  0.000000  -53.42361873031518  10.925271838976988  49.78850910952915  51.86884318546875  -10.317302529768074  -10.205462242891654  37.66948299945219  45.688610286846995  -44.9421843615306  19.106809506342966  120.000000
1.7049999999999987  0.000000  0.000000  0.000000  -52.568451781624276  10.72197224350849  49.81195920104419  51.24815180804882  -11.477125066717088  -11.748171809862699  38.32108535114712  44.378643762888466  -45.27406342969758  19.34681413516891  120.000000
1.7359999999999989  0.000000  0.000000  0.000000  -51.74989315957544  10.453966125467604  49.57284705765731  50.697595528685284  -12.50714606828546  -13.10878095371374  38.88213561325219  42.951216048226364  -45.46056593397413  19.582993818081228  120.000000
1.7669999999999988  0.000000  0.000000  0.000000  -50.96553778599923  10.122959661199438  49.05681658227891  50.21495835520377  -13.405062568611728  -14.269824594390993  39.32418947913757  41.43023565230779  -45.458214210178284  19.80201895040504  120.000000
1.7979999999999987  0.000000  0.000000  0.000000  -50.20187314143413  9.736057146482558  48.250396488665594  49.786455783473436  -14.16286476429165  -15.222597570323828  39.62903885213801  39.84199922195929  -45.23494893231971  19.9873539086233  120.000000
1.8289999999999988  0.000000  0.000000  0.000000  -49.43755361516599  9.303859076915758  47.145927065600524  49.39180609075199  -14.76781198949952  -15.96633629130921  39.790097143481624  38.21400528832904  -44.77886724721604  20.12018519539052  120.000000
1.8599999999999988  0.000000  0.000000  0.000000  -48.65004142645221  8.836963366136715  45.74509923447449  49.009667036070375  -15.2049920249912  -16.50735920267822  39.81334601221315  36.57354936352398  -44.10372398616602  20.182436438456183  120.000000
1.8909999999999987  0.000000  0.000000  0.000000  -47.82284756297449  8.342497869352522  44.060857194455195  48.623546691522066  -15.46095687433026  -16.85758898106407  39.71725070870042  34.947709406159866  -43.24985858958262  20.159838528060277  120.000000
1.9219999999999986  0.000000  0.000000  0.000000  -46.950043480494884  7.821599004395442  42.11892869603613  48.22562428220557  -15.527550950905004  -17.034439442578964  39.53068089257532  33.363664746843014  -42.27892958217143  20.045425197341462  120.000000
1.9529999999999987  0.000000  0.000000  0.000000  -46.03822944230826  7.269826911717802  39.95811603008456  47.81637031125789  -15.405445536294037  -17.0603270177097  39.28989043335643  31.847831055573796  -41.26264294173091  19.841835574720072  120.000000
1.9839999999999987  0.000000  0.000000  0.000000  -45.107118199261826  6.684056093294744  37.62417544063044  47.40551731618433  -15.104151399344985  -16.950798819511068  39.03216728778217  30.419244627197756  -40.26945537356335  19.559219599498697  120.000000
2.014999999999999  0.000000  0.000000  0.000000  -44.18556654766429  6.068987933089602  35.16316406663486  47.012492657066296  -14.638635084114842  -16.704601229313035  38.79001551824886  29.082289677349888  -39.352467641630426  19.211084908466304  120.000000
2.0459999999999985  0.000000  0.000000  0.000000  -43.301784847382095  5.435387837794705  32.62421156143089  46.65955151828534  -14.027839551391743  -16.31669236801551  38.592774586075336  27.828580097153065  -38.54401022891524  18.81300473129589  120.000000
2.0769999999999986  0.000000  0.000000  0.000000  -42.47565391350948  4.795491055583409  30.060815123677223  46.3651731891651  -13.292559696290152  -15.791352845478404  38.46807085546096  26.641802350634073  -37.857529507151  18.381978430643855  120.000000
2.1079999999999988  0.000000  0.000000  0.000000  -41.71809483814888  4.161722256461564  27.525748636289055  46.14266886184362  -12.453910575402055  -15.141654842106492  38.44076213234707  25.50198357985997  -37.29491925553871  17.933799886616374  120.000000
2.1389999999999985  0.000000  0.000000  0.000000  -41.03360785212024  3.54662425942399  25.06627660525172  45.99901096979498  -11.534096223575348  -14.386712503821245  38.533468914461864  24.390857083416943  -36.8539397929258  17.481646612306687  120.000000
2.1699999999999986  0.000000  0.000000  0.000000  -40.42218709174607  2.962281418112714  22.720586825701226  45.93418401698551  -10.556508844394846  -13.549379345637654  38.76722763625246  23.29609040905409  -36.5327527179969  17.036924692504304  120.000000
2.2009999999999983  0.000000  0.000000  0.000000  -39.88081649919341  2.420139229965857  20.516090593434633  45.94126312380414  -9.54519029890563  -12.65355978634068  39.16190723856604  22.2128777172659  -36.33091626730806  16.61033215617477  120.000000
2.2319999999999984  0.000000  0.000000  0.000000  -39.40463399614456  1.9307012409205977  18.469734072491587  46.007909162510956  -8.523690907849547  -11.722528649167058  39.735095946861385  21.143063166002932  -36.24804744952839  16.2127382073681  120.000000
2.2629999999999986  0.000000  0.000000  0.000000  -38.987506311518  1.5024339032381406  16.588841902432822  46.1189140139708  -7.513027376475975  -10.778125264313923  40.49920781977302  20.09307014660525  -36.28256337838981  15.85568080936497  120.000000
2.2939999999999983  0.000000  0.000000  0.000000  -38.62298378852176  1.1403399724064578  14.872859444055214  46.25919779785802  -6.530639347145003  -9.8394896277489  41.45797028687027  19.072068538443006  -36.43163102548847  15.55067557189901  120.000000
2.3249999999999984  0.000000  0.000000  0.000000  -38.305232807065586  0.8447897769816878  13.315834830572959  46.41655181449567  -5.590565992664479  -8.921688718463084  42.603596660132474  18.090582089157163  -36.69233271877007  15.30779419171525  120.000000
2.3559999999999985  0.000000  0.000000  0.000000  -38.02918856254415  0.6111817442745692  11.908557177772328  46.58309922919078  -4.703883555310436  -8.035222386507101  43.915841689545665  17.159408911078096  -37.06292994049259  15.1340717894192  120.000000
